<?xml version="1.0" standalone="no"?>
<!DOCTYPE svg PUBLIC "-//W3C//DTD SVG 20010904//EN"
 "http://www.w3.org/TR/2001/REC-SVG-20010904/DTD/svg10.dtd">
<svg version="1.0" xmlns="http://www.w3.org/2000/svg"
 width="1600.000000pt" height="1600.000000pt" viewBox="0 0 1600.000000 1600.000000"
 preserveAspectRatio="xMidYMid meet">
<metadata>
Created by potrace 1.11, written by Peter Selinger 2001-2013
</metadata>
<g transform="translate(0.000000,1600.000000) scale(0.100000,-0.100000)"
fill="#000000" stroke="none">
<path d="M9273 15976 c-115 -37 -187 -107 -328 -320 -316 -476 -469 -980 -469
-1551 0 -504 99 -882 362 -1384 119 -228 159 -279 257 -327 54 -26 70 -29 155
-29 87 0 100 3 150 30 77 42 165 132 198 202 23 50 27 70 26 148 -1 110 -8
132 -118 340 -46 88 -104 212 -130 275 -111 281 -162 618 -137 905 33 371 154
715 350 995 140 200 177 296 158 420 -17 116 -101 229 -207 279 -66 31 -198
39 -267 17z"/>
<path d="M7520 14564 c-148 -40 -255 -162 -281 -323 -9 -53 -9 -113 0 -249 29
-443 131 -811 331 -1187 32 -61 80 -153 106 -204 82 -164 170 -225 324 -226
75 0 92 4 145 30 127 64 220 192 231 318 9 100 -15 177 -112 359 -104 194
-145 289 -189 433 -52 172 -76 340 -84 576 l-6 205 -33 67 c-52 106 -158 184
-281 207 -68 13 -83 12 -151 -6z"/>
<path d="M6628 13106 c-103 -37 -197 -114 -239 -198 -85 -168 -63 -315 64
-436 37 -35 64 -52 81 -52 14 0 56 -12 93 -27 103 -41 169 -39 266 11 175 88
268 263 223 415 -19 65 -56 130 -104 183 -84 93 -272 144 -384 104z"/>
<path d="M4900 11864 c-112 -30 -209 -116 -252 -222 -23 -56 -23 -63 -26 -533
l-3 -476 -102 -5 c-140 -7 -203 -32 -283 -112 -43 -43 -68 -79 -85 -121 l-24
-60 0 -710 0 -710 24 -60 c17 -42 42 -78 85 -121 84 -83 142 -105 299 -112
106 -4 117 -6 117 -23 0 -28 99 -1344 106 -1410 l6 -56 -56 -11 c-153 -31
-286 -156 -316 -298 -9 -40 24 -498 184 -2569 108 -1386 198 -2544 201 -2572
14 -115 107 -237 223 -291 49 -22 74 -27 180 -30 117 -4 122 -5 122 -26 0 -55
71 -868 81 -921 21 -117 103 -220 217 -273 l57 -27 3595 0 3595 0 65 31 c231
110 289 404 119 598 -50 56 -144 104 -230 116 -36 6 -519 10 -1106 10 l-1042
0 4 28 c2 15 9 97 15 182 5 85 13 183 16 216 l6 62 122 4 c103 3 129 8 176 29
95 44 167 121 204 219 24 64 417 5117 404 5198 -9 60 -43 133 -83 180 -43 52
-139 109 -215 128 -38 10 -70 23 -70 29 0 5 25 339 55 740 30 402 55 731 55
731 0 1 55 4 123 6 161 6 218 28 303 112 43 43 68 79 85 121 l24 60 0 710 0
710 -24 60 c-17 42 -42 78 -85 121 -80 80 -143 105 -283 112 l-102 5 -3 476
-3 476 -24 60 c-33 82 -124 173 -206 206 l-60 24 -3065 2 c-2675 2 -3072 0
-3120 -13z"/>
<path d="M13904 856 c-106 -26 -203 -108 -252 -214 -33 -72 -37 -188 -8 -270
26 -75 118 -172 204 -214 58 -29 76 -33 147 -33 113 0 171 22 251 97 43 41 74
81 96 126 29 58 33 76 33 147 0 107 -23 170 -87 240 -105 115 -238 156 -384
121z"/>
</g>
</svg>
